<?xml version="1.0" encoding="UTF-8" standalone="no"?>
<!DOCTYPE svg PUBLIC "-//W3C//DTD SVG 1.1//EN"
 "http://www.w3.org/Graphics/SVG/1.1/DTD/svg11.dtd">
<!-- Generated by graphviz version 2.43.0 (0)
 -->
<!-- Title: source tree Pages: 1 -->
<svg width="576pt" height="720pt"
 viewBox="0.00 0.00 576.00 719.65" xmlns="http://www.w3.org/2000/svg" xmlns:xlink="http://www.w3.org/1999/xlink">
<g id="graph0" class="graph" transform="scale(6.36 6.36) rotate(0) translate(4 4576.5)">
<title>source tree</title>
<polygon fill="white" stroke="transparent" points="-4,4 -4,-4576.5 3662.19,-4576.5 3662.19,4 -4,4"/>
<!-- cv2debugging.cpp -->
<g id="node1" class="node">
<title>cv2debugging.cpp</title>
<ellipse fill="none" stroke="black" cx="376.99" cy="-3810" rx="95.58" ry="18"/>
<text text-anchor="middle" x="376.99" y="-3806.3" font-family="Times,serif" font-size="14.00">cv2debugging.cpp</text>
</g>
<!-- logging.hpp -->
<g id="node2" class="node">
<title>logging.hpp</title>
<ellipse fill="none" stroke="black" cx="858.99" cy="-762" rx="65.79" ry="18"/>
<text text-anchor="middle" x="858.99" y="-758.3" font-family="Times,serif" font-size="14.00">logging.hpp</text>
</g>
<!-- cv2debugging.cpp&#45;&gt;logging.hpp -->
<g id="edge1" class="edge">
<title>cv2debugging.cpp&#45;&gt;logging.hpp</title>
<path fill="none" stroke="black" d="M379.7,-3791.87C416.18,-3561.36 809.23,-1077.48 854.71,-790.07"/>
<polygon fill="black" stroke="black" points="858.19,-790.51 856.29,-780.08 851.27,-789.41 858.19,-790.51"/>
</g>
<!-- config.hpp -->
<g id="node5" class="node">
<title>config.hpp</title>
<ellipse fill="none" stroke="black" cx="1001.99" cy="-762" rx="59.59" ry="18"/>
<text text-anchor="middle" x="1001.99" y="-758.3" font-family="Times,serif" font-size="14.00">config.hpp</text>
</g>
<!-- cv2debugging.cpp&#45;&gt;config.hpp -->
<g id="edge53" class="edge">
<title>cv2debugging.cpp&#45;&gt;config.hpp</title>
<path fill="none" stroke="black" d="M380.51,-3791.87C427.81,-3561.36 937.47,-1077.48 996.44,-790.07"/>
<polygon fill="black" stroke="black" points="999.91,-790.58 998.49,-780.08 993.05,-789.17 999.91,-790.58"/>
</g>
<!-- context.hpp -->
<g id="node7" class="node">
<title>context.hpp</title>
<ellipse fill="none" stroke="black" cx="138.99" cy="-762" rx="65.79" ry="18"/>
<text text-anchor="middle" x="138.99" y="-758.3" font-family="Times,serif" font-size="14.00">context.hpp</text>
</g>
<!-- cv2debugging.cpp&#45;&gt;context.hpp -->
<g id="edge40" class="edge">
<title>cv2debugging.cpp&#45;&gt;context.hpp</title>
<path fill="none" stroke="black" d="M375.66,-3791.87C357.65,-3561.36 163.57,-1077.48 141.11,-790.07"/>
<polygon fill="black" stroke="black" points="144.6,-789.78 140.33,-780.08 137.62,-790.32 144.6,-789.78"/>
</g>
<!-- cv2debugging.hpp -->
<g id="node13" class="node">
<title>cv2debugging.hpp</title>
<ellipse fill="none" stroke="black" cx="318.99" cy="-762" rx="96.68" ry="18"/>
<text text-anchor="middle" x="318.99" y="-758.3" font-family="Times,serif" font-size="14.00">cv2debugging.hpp</text>
</g>
<!-- cv2debugging.cpp&#45;&gt;cv2debugging.hpp -->
<g id="edge11" class="edge">
<title>cv2debugging.cpp&#45;&gt;cv2debugging.hpp</title>
<path fill="none" stroke="black" d="M376.67,-3791.87C372.28,-3561.48 325.03,-1079.94 319.52,-790.5"/>
<polygon fill="black" stroke="black" points="323.01,-790.01 319.32,-780.08 316.01,-790.15 323.01,-790.01"/>
</g>
<!-- config.cpp -->
<g id="node3" class="node">
<title>config.cpp</title>
<ellipse fill="none" stroke="black" cx="1142.99" cy="-3810" rx="58.49" ry="18"/>
<text text-anchor="middle" x="1142.99" y="-3806.3" font-family="Times,serif" font-size="14.00">config.cpp</text>
</g>
<!-- config.cpp&#45;&gt;logging.hpp -->
<g id="edge2" class="edge">
<title>config.cpp&#45;&gt;logging.hpp</title>
<path fill="none" stroke="black" d="M1141.4,-3791.87C1119.91,-3561.36 888.32,-1077.48 861.52,-790.07"/>
<polygon fill="black" stroke="black" points="865,-789.71 860.59,-780.08 858.03,-790.36 865,-789.71"/>
</g>
<!-- config.cpp&#45;&gt;config.hpp -->
<g id="edge15" class="edge">
<title>config.cpp&#45;&gt;config.hpp</title>
<path fill="none" stroke="black" d="M1142.2,-3791.87C1131.54,-3561.48 1016.67,-1079.94 1003.27,-790.5"/>
<polygon fill="black" stroke="black" points="1006.74,-789.91 1002.78,-780.08 999.75,-790.23 1006.74,-789.91"/>
</g>
<!-- errors.h -->
<g id="node10" class="node">
<title>errors.h</title>
<ellipse fill="none" stroke="black" cx="1127.99" cy="-762" rx="48.19" ry="18"/>
<text text-anchor="middle" x="1127.99" y="-758.3" font-family="Times,serif" font-size="14.00">errors.h</text>
</g>
<!-- config.cpp&#45;&gt;errors.h -->
<g id="edge6" class="edge">
<title>config.cpp&#45;&gt;errors.h</title>
<path fill="none" stroke="black" d="M1142.91,-3791.87C1141.78,-3561.48 1129.55,-1079.94 1128.13,-790.5"/>
<polygon fill="black" stroke="black" points="1131.63,-790.06 1128.08,-780.08 1124.63,-790.1 1131.63,-790.06"/>
</g>
<!-- AppThreadManager.cpp -->
<g id="node4" class="node">
<title>AppThreadManager.cpp</title>
<ellipse fill="none" stroke="black" cx="1628.99" cy="-3810" rx="121.58" ry="18"/>
<text text-anchor="middle" x="1628.99" y="-3806.3" font-family="Times,serif" font-size="14.00">AppThreadManager.cpp</text>
</g>
<!-- AppThreadManager.cpp&#45;&gt;config.hpp -->
<g id="edge3" class="edge">
<title>AppThreadManager.cpp&#45;&gt;config.hpp</title>
<path fill="none" stroke="black" d="M1625.47,-3791.87C1578.02,-3561.36 1066.73,-1077.48 1007.57,-790.07"/>
<polygon fill="black" stroke="black" points="1010.95,-789.17 1005.51,-780.08 1004.1,-790.58 1010.95,-789.17"/>
</g>
<!-- AppThreadManager.hpp -->
<g id="node9" class="node">
<title>AppThreadManager.hpp</title>
<ellipse fill="none" stroke="black" cx="1831.99" cy="-762" rx="122.38" ry="18"/>
<text text-anchor="middle" x="1831.99" y="-758.3" font-family="Times,serif" font-size="14.00">AppThreadManager.hpp</text>
</g>
<!-- AppThreadManager.cpp&#45;&gt;AppThreadManager.hpp -->
<g id="edge20" class="edge">
<title>AppThreadManager.cpp&#45;&gt;AppThreadManager.hpp</title>
<path fill="none" stroke="black" d="M1630.14,-3791.87C1645.5,-3561.36 1811.04,-1077.48 1830.19,-790.07"/>
<polygon fill="black" stroke="black" points="1833.68,-790.29 1830.86,-780.08 1826.7,-789.83 1833.68,-790.29"/>
</g>
<!-- ImageProcessor.hpp -->
<g id="node19" class="node">
<title>ImageProcessor.hpp</title>
<ellipse fill="none" stroke="black" cx="1298.99" cy="-762" rx="104.78" ry="18"/>
<text text-anchor="middle" x="1298.99" y="-758.3" font-family="Times,serif" font-size="14.00">ImageProcessor.hpp</text>
</g>
<!-- AppThreadManager.cpp&#45;&gt;ImageProcessor.hpp -->
<g id="edge21" class="edge">
<title>AppThreadManager.cpp&#45;&gt;ImageProcessor.hpp</title>
<path fill="none" stroke="black" d="M1627.14,-3791.87C1602.17,-3561.36 1333.06,-1077.48 1301.93,-790.07"/>
<polygon fill="black" stroke="black" points="1305.4,-789.65 1300.84,-780.08 1298.44,-790.4 1305.4,-789.65"/>
</g>
<!-- mainui.hpp -->
<g id="node23" class="node">
<title>mainui.hpp</title>
<ellipse fill="none" stroke="black" cx="1628.99" cy="-762" rx="63.09" ry="18"/>
<text text-anchor="middle" x="1628.99" y="-758.3" font-family="Times,serif" font-size="14.00">mainui.hpp</text>
</g>
<!-- AppThreadManager.cpp&#45;&gt;mainui.hpp -->
<g id="edge41" class="edge">
<title>AppThreadManager.cpp&#45;&gt;mainui.hpp</title>
<path fill="none" stroke="black" d="M1628.99,-3791.87C1628.99,-3561.48 1628.99,-1079.94 1628.99,-790.5"/>
<polygon fill="black" stroke="black" points="1632.49,-790.08 1628.99,-780.08 1625.49,-790.08 1632.49,-790.08"/>
</g>
<!-- sequoia.cpp -->
<g id="node6" class="node">
<title>sequoia.cpp</title>
<ellipse fill="none" stroke="black" cx="1423.99" cy="-3810" rx="65.79" ry="18"/>
<text text-anchor="middle" x="1423.99" y="-3806.3" font-family="Times,serif" font-size="14.00">sequoia.cpp</text>
</g>
<!-- sequoia.cpp&#45;&gt;config.hpp -->
<g id="edge44" class="edge">
<title>sequoia.cpp&#45;&gt;config.hpp</title>
<path fill="none" stroke="black" d="M1421.62,-3791.87C1389.69,-3561.36 1045.56,-1077.48 1005.74,-790.07"/>
<polygon fill="black" stroke="black" points="1009.2,-789.51 1004.36,-780.08 1002.27,-790.47 1009.2,-789.51"/>
</g>
<!-- sequoia.cpp&#45;&gt;context.hpp -->
<g id="edge4" class="edge">
<title>sequoia.cpp&#45;&gt;context.hpp</title>
<path fill="none" stroke="black" d="M1416.77,-3791.87C1319.48,-3561.25 270.63,-1075.02 150.23,-789.64"/>
<polygon fill="black" stroke="black" points="153.31,-787.93 146.2,-780.08 146.86,-790.66 153.31,-787.93"/>
</g>
<!-- sequoia.cpp&#45;&gt;AppThreadManager.hpp -->
<g id="edge25" class="edge">
<title>sequoia.cpp&#45;&gt;AppThreadManager.hpp</title>
<path fill="none" stroke="black" d="M1426.29,-3791.87C1457.16,-3561.36 1789.87,-1077.48 1828.37,-790.07"/>
<polygon fill="black" stroke="black" points="1831.85,-790.46 1829.71,-780.08 1824.91,-789.53 1831.85,-790.46"/>
</g>
<!-- sequoia.cpp&#45;&gt;mainui.hpp -->
<g id="edge24" class="edge">
<title>sequoia.cpp&#45;&gt;mainui.hpp</title>
<path fill="none" stroke="black" d="M1425.15,-3791.87C1440.66,-3561.36 1607.83,-1077.48 1627.17,-790.07"/>
<polygon fill="black" stroke="black" points="1630.67,-790.29 1627.84,-780.08 1623.68,-789.82 1630.67,-790.29"/>
</g>
<!-- staticdbg.h -->
<g id="node36" class="node">
<title>staticdbg.h</title>
<ellipse fill="none" stroke="black" cx="1484.99" cy="-762" rx="63.09" ry="18"/>
<text text-anchor="middle" x="1484.99" y="-758.3" font-family="Times,serif" font-size="14.00">staticdbg.h</text>
</g>
<!-- sequoia.cpp&#45;&gt;staticdbg.h -->
<g id="edge49" class="edge">
<title>sequoia.cpp&#45;&gt;staticdbg.h</title>
<path fill="none" stroke="black" d="M1424.34,-3791.87C1428.95,-3561.48 1478.65,-1079.94 1484.44,-790.5"/>
<polygon fill="black" stroke="black" points="1487.95,-790.15 1484.65,-780.08 1480.95,-790.01 1487.95,-790.15"/>
</g>
<!-- ImageReader.cpp -->
<g id="node8" class="node">
<title>ImageReader.cpp</title>
<ellipse fill="none" stroke="black" cx="2341.99" cy="-3810" rx="90.98" ry="18"/>
<text text-anchor="middle" x="2341.99" y="-3806.3" font-family="Times,serif" font-size="14.00">ImageReader.cpp</text>
</g>
<!-- ImageReader.cpp&#45;&gt;logging.hpp -->
<g id="edge48" class="edge">
<title>ImageReader.cpp&#45;&gt;logging.hpp</title>
<path fill="none" stroke="black" d="M2333.65,-3791.87C2221.32,-3561.13 1009.71,-1072.56 871.76,-789.22"/>
<polygon fill="black" stroke="black" points="874.83,-787.54 867.31,-780.08 868.54,-790.6 874.83,-787.54"/>
</g>
<!-- ImageReader.cpp&#45;&gt;config.hpp -->
<g id="edge51" class="edge">
<title>ImageReader.cpp&#45;&gt;config.hpp</title>
<path fill="none" stroke="black" d="M2334.46,-3791.87C2233,-3561.25 1139.26,-1075.02 1013.72,-789.64"/>
<polygon fill="black" stroke="black" points="1016.74,-787.83 1009.51,-780.08 1010.33,-790.64 1016.74,-787.83"/>
</g>
<!-- ImageReader.cpp&#45;&gt;AppThreadManager.hpp -->
<g id="edge5" class="edge">
<title>ImageReader.cpp&#45;&gt;AppThreadManager.hpp</title>
<path fill="none" stroke="black" d="M2339.13,-3791.87C2300.53,-3561.36 1884.65,-1077.48 1836.53,-790.07"/>
<polygon fill="black" stroke="black" points="1839.96,-789.37 1834.85,-780.08 1833.05,-790.52 1839.96,-789.37"/>
</g>
<!-- drawing.hpp -->
<g id="node17" class="node">
<title>drawing.hpp</title>
<ellipse fill="none" stroke="black" cx="2521.99" cy="-762" rx="69.59" ry="18"/>
<text text-anchor="middle" x="2521.99" y="-758.3" font-family="Times,serif" font-size="14.00">drawing.hpp</text>
</g>
<!-- ImageReader.cpp&#45;&gt;drawing.hpp -->
<g id="edge12" class="edge">
<title>ImageReader.cpp&#45;&gt;drawing.hpp</title>
<path fill="none" stroke="black" d="M2343.01,-3791.87C2356.63,-3561.36 2503.41,-1077.48 2520.39,-790.07"/>
<polygon fill="black" stroke="black" points="2523.89,-790.27 2520.98,-780.08 2516.9,-789.86 2523.89,-790.27"/>
</g>
<!-- Dimensioner.hpp -->
<g id="node20" class="node">
<title>Dimensioner.hpp</title>
<ellipse fill="none" stroke="black" cx="2866.99" cy="-762" rx="89.08" ry="18"/>
<text text-anchor="middle" x="2866.99" y="-758.3" font-family="Times,serif" font-size="14.00">Dimensioner.hpp</text>
</g>
<!-- ImageReader.cpp&#45;&gt;Dimensioner.hpp -->
<g id="edge19" class="edge">
<title>ImageReader.cpp&#45;&gt;Dimensioner.hpp</title>
<path fill="none" stroke="black" d="M2344.95,-3791.87C2384.68,-3561.36 2812.79,-1077.48 2862.33,-790.07"/>
<polygon fill="black" stroke="black" points="2865.8,-790.53 2864.05,-780.08 2858.9,-789.34 2865.8,-790.53"/>
</g>
<!-- rectangle.hpp -->
<g id="node28" class="node">
<title>rectangle.hpp</title>
<ellipse fill="none" stroke="black" cx="2684.99" cy="-762" rx="75.29" ry="18"/>
<text text-anchor="middle" x="2684.99" y="-758.3" font-family="Times,serif" font-size="14.00">rectangle.hpp</text>
</g>
<!-- ImageReader.cpp&#45;&gt;rectangle.hpp -->
<g id="edge46" class="edge">
<title>ImageReader.cpp&#45;&gt;rectangle.hpp</title>
<path fill="none" stroke="black" d="M2343.92,-3791.87C2369.88,-3561.36 2649.58,-1077.48 2681.95,-790.07"/>
<polygon fill="black" stroke="black" points="2685.43,-790.41 2683.07,-780.08 2678.47,-789.63 2685.43,-790.41"/>
</g>
<!-- image.hpp -->
<g id="node29" class="node">
<title>image.hpp</title>
<ellipse fill="none" stroke="black" cx="3033.99" cy="-762" rx="59.59" ry="18"/>
<text text-anchor="middle" x="3033.99" y="-758.3" font-family="Times,serif" font-size="14.00">image.hpp</text>
</g>
<!-- ImageReader.cpp&#45;&gt;image.hpp -->
<g id="edge30" class="edge">
<title>ImageReader.cpp&#45;&gt;image.hpp</title>
<path fill="none" stroke="black" d="M2345.89,-3791.87C2398.25,-3561.36 2962.55,-1077.48 3027.84,-790.07"/>
<polygon fill="black" stroke="black" points="3031.31,-790.61 3030.11,-780.08 3024.49,-789.06 3031.31,-790.61"/>
</g>
<!-- ImageReader.hpp -->
<g id="node35" class="node">
<title>ImageReader.hpp</title>
<ellipse fill="none" stroke="black" cx="2341.99" cy="-762" rx="92.08" ry="18"/>
<text text-anchor="middle" x="2341.99" y="-758.3" font-family="Times,serif" font-size="14.00">ImageReader.hpp</text>
</g>
<!-- ImageReader.cpp&#45;&gt;ImageReader.hpp -->
<g id="edge45" class="edge">
<title>ImageReader.cpp&#45;&gt;ImageReader.hpp</title>
<path fill="none" stroke="black" d="M2341.99,-3791.87C2341.99,-3561.48 2341.99,-1079.94 2341.99,-790.5"/>
<polygon fill="black" stroke="black" points="2345.49,-790.08 2341.99,-780.08 2338.49,-790.08 2345.49,-790.08"/>
</g>
<!-- units.hpp -->
<g id="node39" class="node">
<title>units.hpp</title>
<ellipse fill="none" stroke="black" cx="2176.99" cy="-762" rx="54.69" ry="18"/>
<text text-anchor="middle" x="2176.99" y="-758.3" font-family="Times,serif" font-size="14.00">units.hpp</text>
</g>
<!-- ImageReader.cpp&#45;&gt;units.hpp -->
<g id="edge55" class="edge">
<title>ImageReader.cpp&#45;&gt;units.hpp</title>
<path fill="none" stroke="black" d="M2341.07,-3791.87C2328.58,-3561.36 2194.03,-1077.48 2178.46,-790.07"/>
<polygon fill="black" stroke="black" points="2181.96,-789.88 2177.92,-780.08 2174.97,-790.26 2181.96,-789.88"/>
</g>
<!-- sequoia_trainer.cpp -->
<g id="node11" class="node">
<title>sequoia_trainer.cpp</title>
<ellipse fill="none" stroke="black" cx="591.99" cy="-3810" rx="101.28" ry="18"/>
<text text-anchor="middle" x="591.99" y="-3806.3" font-family="Times,serif" font-size="14.00">sequoia_trainer.cpp</text>
</g>
<!-- sequoia_trainer.cpp&#45;&gt;logging.hpp -->
<g id="edge47" class="edge">
<title>sequoia_trainer.cpp&#45;&gt;logging.hpp</title>
<path fill="none" stroke="black" d="M593.5,-3791.87C613.7,-3561.36 831.43,-1077.48 856.62,-790.07"/>
<polygon fill="black" stroke="black" points="860.11,-790.35 857.5,-780.08 853.14,-789.74 860.11,-790.35"/>
</g>
<!-- sequoia_trainer.cpp&#45;&gt;config.hpp -->
<g id="edge7" class="edge">
<title>sequoia_trainer.cpp&#45;&gt;config.hpp</title>
<path fill="none" stroke="black" d="M594.3,-3791.87C625.33,-3561.36 959.66,-1077.48 998.35,-790.07"/>
<polygon fill="black" stroke="black" points="1001.83,-790.46 999.7,-780.08 994.89,-789.52 1001.83,-790.46"/>
</g>
<!-- sequoia_trainer.cpp&#45;&gt;context.hpp -->
<g id="edge43" class="edge">
<title>sequoia_trainer.cpp&#45;&gt;context.hpp</title>
<path fill="none" stroke="black" d="M589.45,-3791.87C555.17,-3561.36 185.76,-1077.48 143.02,-790.07"/>
<polygon fill="black" stroke="black" points="146.47,-789.46 141.53,-780.08 139.54,-790.49 146.47,-789.46"/>
</g>
<!-- filters.hpp -->
<g id="node21" class="node">
<title>filters.hpp</title>
<ellipse fill="none" stroke="black" cx="492.99" cy="-762" rx="59.29" ry="18"/>
<text text-anchor="middle" x="492.99" y="-758.3" font-family="Times,serif" font-size="14.00">filters.hpp</text>
</g>
<!-- sequoia_trainer.cpp&#45;&gt;filters.hpp -->
<g id="edge50" class="edge">
<title>sequoia_trainer.cpp&#45;&gt;filters.hpp</title>
<path fill="none" stroke="black" d="M591.44,-3791.87C583.95,-3561.48 503.3,-1079.94 493.89,-790.5"/>
<polygon fill="black" stroke="black" points="497.37,-789.96 493.55,-780.08 490.38,-790.19 497.37,-789.96"/>
</g>
<!-- trackhistogram.hpp -->
<g id="node24" class="node">
<title>trackhistogram.hpp</title>
<ellipse fill="none" stroke="black" cx="672.99" cy="-762" rx="102.88" ry="18"/>
<text text-anchor="middle" x="672.99" y="-758.3" font-family="Times,serif" font-size="14.00">trackhistogram.hpp</text>
</g>
<!-- sequoia_trainer.cpp&#45;&gt;trackhistogram.hpp -->
<g id="edge33" class="edge">
<title>sequoia_trainer.cpp&#45;&gt;trackhistogram.hpp</title>
<path fill="none" stroke="black" d="M592.45,-3791.87C598.58,-3561.48 664.57,-1079.94 672.26,-790.5"/>
<polygon fill="black" stroke="black" points="675.77,-790.17 672.54,-780.08 668.78,-789.98 675.77,-790.17"/>
</g>
<!-- filters.cpp -->
<g id="node12" class="node">
<title>filters.cpp</title>
<ellipse fill="none" stroke="black" cx="205.99" cy="-3810" rx="57.69" ry="18"/>
<text text-anchor="middle" x="205.99" y="-3806.3" font-family="Times,serif" font-size="14.00">filters.cpp</text>
</g>
<!-- filters.cpp&#45;&gt;logging.hpp -->
<g id="edge18" class="edge">
<title>filters.cpp&#45;&gt;logging.hpp</title>
<path fill="none" stroke="black" d="M209.67,-3791.87C259.08,-3561.36 791.58,-1077.48 853.19,-790.07"/>
<polygon fill="black" stroke="black" points="856.66,-790.59 855.33,-780.08 849.81,-789.13 856.66,-790.59"/>
</g>
<!-- filters.cpp&#45;&gt;context.hpp -->
<g id="edge34" class="edge">
<title>filters.cpp&#45;&gt;context.hpp</title>
<path fill="none" stroke="black" d="M205.62,-3791.87C200.55,-3561.48 145.97,-1079.94 139.6,-790.5"/>
<polygon fill="black" stroke="black" points="143.09,-790 139.37,-780.08 136.09,-790.16 143.09,-790"/>
</g>
<!-- filters.cpp&#45;&gt;cv2debugging.hpp -->
<g id="edge8" class="edge">
<title>filters.cpp&#45;&gt;cv2debugging.hpp</title>
<path fill="none" stroke="black" d="M206.63,-3791.87C215.18,-3561.48 307.24,-1079.94 317.97,-790.5"/>
<polygon fill="black" stroke="black" points="321.49,-790.2 318.36,-780.08 314.49,-789.94 321.49,-790.2"/>
</g>
<!-- filters.cpp&#45;&gt;filters.hpp -->
<g id="edge39" class="edge">
<title>filters.cpp&#45;&gt;filters.hpp</title>
<path fill="none" stroke="black" d="M207.61,-3791.87C229.33,-3561.36 463.36,-1077.48 490.44,-790.07"/>
<polygon fill="black" stroke="black" points="493.93,-790.37 491.38,-780.08 486.96,-789.71 493.93,-790.37"/>
</g>
<!-- drawing.cpp -->
<g id="node14" class="node">
<title>drawing.cpp</title>
<ellipse fill="none" stroke="black" cx="2684.99" cy="-3810" rx="68.49" ry="18"/>
<text text-anchor="middle" x="2684.99" y="-3806.3" font-family="Times,serif" font-size="14.00">drawing.cpp</text>
</g>
<!-- color.hpp -->
<g id="node15" class="node">
<title>color.hpp</title>
<ellipse fill="none" stroke="black" cx="3164.99" cy="-762" rx="53.09" ry="18"/>
<text text-anchor="middle" x="3164.99" y="-758.3" font-family="Times,serif" font-size="14.00">color.hpp</text>
</g>
<!-- drawing.cpp&#45;&gt;color.hpp -->
<g id="edge9" class="edge">
<title>drawing.cpp&#45;&gt;color.hpp</title>
<path fill="none" stroke="black" d="M2687.69,-3791.87C2724.02,-3561.36 3115.44,-1077.48 3160.73,-790.07"/>
<polygon fill="black" stroke="black" points="3164.2,-790.5 3162.3,-780.08 3157.29,-789.41 3164.2,-790.5"/>
</g>
<!-- drawing.cpp&#45;&gt;drawing.hpp -->
<g id="edge35" class="edge">
<title>drawing.cpp&#45;&gt;drawing.hpp</title>
<path fill="none" stroke="black" d="M2684.08,-3791.87C2671.74,-3561.36 2538.82,-1077.48 2523.44,-790.07"/>
<polygon fill="black" stroke="black" points="2526.94,-789.88 2522.91,-780.08 2519.95,-790.25 2526.94,-789.88"/>
</g>
<!-- drawing.cpp&#45;&gt;rectangle.hpp -->
<g id="edge29" class="edge">
<title>drawing.cpp&#45;&gt;rectangle.hpp</title>
<path fill="none" stroke="black" d="M2684.99,-3791.87C2684.99,-3561.48 2684.99,-1079.94 2684.99,-790.5"/>
<polygon fill="black" stroke="black" points="2688.49,-790.08 2684.99,-780.08 2681.49,-790.08 2688.49,-790.08"/>
</g>
<!-- mainui.cpp -->
<g id="node16" class="node">
<title>mainui.cpp</title>
<ellipse fill="none" stroke="black" cx="1831.99" cy="-3810" rx="61.99" ry="18"/>
<text text-anchor="middle" x="1831.99" y="-3806.3" font-family="Times,serif" font-size="14.00">mainui.cpp</text>
</g>
<!-- mainui.cpp&#45;&gt;AppThreadManager.hpp -->
<g id="edge10" class="edge">
<title>mainui.cpp&#45;&gt;AppThreadManager.hpp</title>
<path fill="none" stroke="black" d="M1831.99,-3791.87C1831.99,-3561.48 1831.99,-1079.94 1831.99,-790.5"/>
<polygon fill="black" stroke="black" points="1835.49,-790.08 1831.99,-780.08 1828.49,-790.08 1835.49,-790.08"/>
</g>
<!-- mainui.cpp&#45;&gt;mainui.hpp -->
<g id="edge31" class="edge">
<title>mainui.cpp&#45;&gt;mainui.hpp</title>
<path fill="none" stroke="black" d="M1830.85,-3791.87C1815.49,-3561.36 1649.95,-1077.48 1630.8,-790.07"/>
<polygon fill="black" stroke="black" points="1634.29,-789.83 1630.13,-780.08 1627.31,-790.29 1634.29,-789.83"/>
</g>
<!-- ocv2ray.hpp -->
<g id="node27" class="node">
<title>ocv2ray.hpp</title>
<ellipse fill="none" stroke="black" cx="2037.99" cy="-762" rx="66.09" ry="18"/>
<text text-anchor="middle" x="2037.99" y="-758.3" font-family="Times,serif" font-size="14.00">ocv2ray.hpp</text>
</g>
<!-- mainui.cpp&#45;&gt;ocv2ray.hpp -->
<g id="edge42" class="edge">
<title>mainui.cpp&#45;&gt;ocv2ray.hpp</title>
<path fill="none" stroke="black" d="M1833.15,-3791.87C1848.74,-3561.36 2016.73,-1077.48 2036.16,-790.07"/>
<polygon fill="black" stroke="black" points="2039.66,-790.29 2036.84,-780.08 2032.67,-789.82 2039.66,-790.29"/>
</g>
<!-- ImageProcessor.cpp -->
<g id="node18" class="node">
<title>ImageProcessor.cpp</title>
<ellipse fill="none" stroke="black" cx="814.99" cy="-3810" rx="103.98" ry="18"/>
<text text-anchor="middle" x="814.99" y="-3806.3" font-family="Times,serif" font-size="14.00">ImageProcessor.cpp</text>
</g>
<!-- ImageProcessor.cpp&#45;&gt;logging.hpp -->
<g id="edge17" class="edge">
<title>ImageProcessor.cpp&#45;&gt;logging.hpp</title>
<path fill="none" stroke="black" d="M815.24,-3791.87C818.57,-3561.48 854.42,-1079.94 858.6,-790.5"/>
<polygon fill="black" stroke="black" points="862.1,-790.13 858.75,-780.08 855.1,-790.03 862.1,-790.13"/>
</g>
<!-- ImageProcessor.cpp&#45;&gt;config.hpp -->
<g id="edge14" class="edge">
<title>ImageProcessor.cpp&#45;&gt;config.hpp</title>
<path fill="none" stroke="black" d="M816.05,-3791.87C830.2,-3561.36 982.69,-1077.48 1000.33,-790.07"/>
<polygon fill="black" stroke="black" points="1003.83,-790.28 1000.95,-780.08 996.84,-789.85 1003.83,-790.28"/>
</g>
<!-- ImageProcessor.cpp&#45;&gt;cv2debugging.hpp -->
<g id="edge13" class="edge">
<title>ImageProcessor.cpp&#45;&gt;cv2debugging.hpp</title>
<path fill="none" stroke="black" d="M812.2,-3791.87C774.67,-3561.36 370.2,-1077.48 323.4,-790.07"/>
<polygon fill="black" stroke="black" points="326.84,-789.39 321.78,-780.08 319.93,-790.51 326.84,-789.39"/>
</g>
<!-- ImageProcessor.cpp&#45;&gt;ImageProcessor.hpp -->
<g id="edge16" class="edge">
<title>ImageProcessor.cpp&#45;&gt;ImageProcessor.hpp</title>
<path fill="none" stroke="black" d="M817.72,-3791.87C854.34,-3561.36 1249.02,-1077.48 1294.69,-790.07"/>
<polygon fill="black" stroke="black" points="1298.17,-790.51 1296.28,-780.08 1291.25,-789.41 1298.17,-790.51"/>
</g>
<!-- ImageProcessor.cpp&#45;&gt;filters.hpp -->
<g id="edge22" class="edge">
<title>ImageProcessor.cpp&#45;&gt;filters.hpp</title>
<path fill="none" stroke="black" d="M813.18,-3791.87C788.82,-3561.36 526.24,-1077.48 495.86,-790.07"/>
<polygon fill="black" stroke="black" points="499.33,-789.66 494.8,-780.08 492.37,-790.39 499.33,-789.66"/>
</g>
<!-- ImageProcessor.cpp&#45;&gt;trackhistogram.hpp -->
<g id="edge26" class="edge">
<title>ImageProcessor.cpp&#45;&gt;trackhistogram.hpp</title>
<path fill="none" stroke="black" d="M814.2,-3791.87C803.46,-3561.48 687.77,-1079.94 674.28,-790.5"/>
<polygon fill="black" stroke="black" points="677.75,-789.91 673.79,-780.08 670.76,-790.23 677.75,-789.91"/>
</g>
<!-- logging.cpp -->
<g id="node22" class="node">
<title>logging.cpp</title>
<ellipse fill="none" stroke="black" cx="1001.99" cy="-3810" rx="64.99" ry="18"/>
<text text-anchor="middle" x="1001.99" y="-3806.3" font-family="Times,serif" font-size="14.00">logging.cpp</text>
</g>
<!-- logging.cpp&#45;&gt;logging.hpp -->
<g id="edge23" class="edge">
<title>logging.cpp&#45;&gt;logging.hpp</title>
<path fill="none" stroke="black" d="M1001.19,-3791.87C990.37,-3561.48 873.87,-1079.94 860.29,-790.5"/>
<polygon fill="black" stroke="black" points="863.76,-789.91 859.8,-780.08 856.77,-790.23 863.76,-789.91"/>
</g>
<!-- logging.cpp&#45;&gt;config.hpp -->
<g id="edge52" class="edge">
<title>logging.cpp&#45;&gt;config.hpp</title>
<path fill="none" stroke="black" d="M1001.99,-3791.87C1001.99,-3561.48 1001.99,-1079.94 1001.99,-790.5"/>
<polygon fill="black" stroke="black" points="1005.49,-790.08 1001.99,-780.08 998.49,-790.08 1005.49,-790.08"/>
</g>
<!-- context.cpp -->
<g id="node25" class="node">
<title>context.cpp</title>
<ellipse fill="none" stroke="black" cx="64.99" cy="-3810" rx="64.99" ry="18"/>
<text text-anchor="middle" x="64.99" y="-3806.3" font-family="Times,serif" font-size="14.00">context.cpp</text>
</g>
<!-- context.cpp&#45;&gt;context.hpp -->
<g id="edge27" class="edge">
<title>context.cpp&#45;&gt;context.hpp</title>
<path fill="none" stroke="black" d="M65.41,-3791.87C71.01,-3561.48 131.29,-1079.94 138.33,-790.5"/>
<polygon fill="black" stroke="black" points="141.84,-790.16 138.58,-780.08 134.84,-789.99 141.84,-790.16"/>
</g>
<!-- ocv2ray.cpp -->
<g id="node26" class="node">
<title>ocv2ray.cpp</title>
<ellipse fill="none" stroke="black" cx="2037.99" cy="-3810" rx="65.79" ry="18"/>
<text text-anchor="middle" x="2037.99" y="-3806.3" font-family="Times,serif" font-size="14.00">ocv2ray.cpp</text>
</g>
<!-- ocv2ray.cpp&#45;&gt;ocv2ray.hpp -->
<g id="edge28" class="edge">
<title>ocv2ray.cpp&#45;&gt;ocv2ray.hpp</title>
<path fill="none" stroke="black" d="M2037.99,-3791.87C2037.99,-3561.48 2037.99,-1079.94 2037.99,-790.5"/>
<polygon fill="black" stroke="black" points="2041.49,-790.08 2037.99,-780.08 2034.49,-790.08 2041.49,-790.08"/>
</g>
<!-- Dimensioner.cpp -->
<g id="node30" class="node">
<title>Dimensioner.cpp</title>
<ellipse fill="none" stroke="black" cx="2866.99" cy="-3810" rx="88.28" ry="18"/>
<text text-anchor="middle" x="2866.99" y="-3806.3" font-family="Times,serif" font-size="14.00">Dimensioner.cpp</text>
</g>
<!-- Dimensioner.cpp&#45;&gt;Dimensioner.hpp -->
<g id="edge32" class="edge">
<title>Dimensioner.cpp&#45;&gt;Dimensioner.hpp</title>
<path fill="none" stroke="black" d="M2866.99,-3791.87C2866.99,-3561.48 2866.99,-1079.94 2866.99,-790.5"/>
<polygon fill="black" stroke="black" points="2870.49,-790.08 2866.99,-780.08 2863.49,-790.08 2870.49,-790.08"/>
</g>
<!-- color.cpp -->
<g id="node31" class="node">
<title>color.cpp</title>
<ellipse fill="none" stroke="black" cx="3164.99" cy="-3810" rx="51.99" ry="18"/>
<text text-anchor="middle" x="3164.99" y="-3806.3" font-family="Times,serif" font-size="14.00">color.cpp</text>
</g>
<!-- color.cpp&#45;&gt;color.hpp -->
<g id="edge36" class="edge">
<title>color.cpp&#45;&gt;color.hpp</title>
<path fill="none" stroke="black" d="M3164.99,-3791.87C3164.99,-3561.48 3164.99,-1079.94 3164.99,-790.5"/>
<polygon fill="black" stroke="black" points="3168.49,-790.08 3164.99,-780.08 3161.49,-790.08 3168.49,-790.08"/>
</g>
<!-- image.cpp -->
<g id="node32" class="node">
<title>image.cpp</title>
<ellipse fill="none" stroke="black" cx="3033.99" cy="-3810" rx="58.49" ry="18"/>
<text text-anchor="middle" x="3033.99" y="-3806.3" font-family="Times,serif" font-size="14.00">image.cpp</text>
</g>
<!-- image.cpp&#45;&gt;image.hpp -->
<g id="edge37" class="edge">
<title>image.cpp&#45;&gt;image.hpp</title>
<path fill="none" stroke="black" d="M3033.99,-3791.87C3033.99,-3561.48 3033.99,-1079.94 3033.99,-790.5"/>
<polygon fill="black" stroke="black" points="3037.49,-790.08 3033.99,-780.08 3030.49,-790.08 3037.49,-790.08"/>
</g>
<!-- raygui.cpp -->
<g id="node33" class="node">
<title>raygui.cpp</title>
<ellipse fill="none" stroke="black" cx="3296.99" cy="-3810" rx="59.59" ry="18"/>
<text text-anchor="middle" x="3296.99" y="-3806.3" font-family="Times,serif" font-size="14.00">raygui.cpp</text>
</g>
<!-- raygui.hpp -->
<g id="node34" class="node">
<title>raygui.hpp</title>
<ellipse fill="none" stroke="black" cx="3296.99" cy="-762" rx="61.19" ry="18"/>
<text text-anchor="middle" x="3296.99" y="-758.3" font-family="Times,serif" font-size="14.00">raygui.hpp</text>
</g>
<!-- raygui.cpp&#45;&gt;raygui.hpp -->
<g id="edge38" class="edge">
<title>raygui.cpp&#45;&gt;raygui.hpp</title>
<path fill="none" stroke="black" d="M3296.99,-3791.87C3296.99,-3561.48 3296.99,-1079.94 3296.99,-790.5"/>
<polygon fill="black" stroke="black" points="3300.49,-790.08 3296.99,-780.08 3293.49,-790.08 3300.49,-790.08"/>
</g>
<!-- uicontext.cpp -->
<g id="node37" class="node">
<title>uicontext.cpp</title>
<ellipse fill="none" stroke="black" cx="3450.99" cy="-3810" rx="73.39" ry="18"/>
<text text-anchor="middle" x="3450.99" y="-3806.3" font-family="Times,serif" font-size="14.00">uicontext.cpp</text>
</g>
<!-- uicontext.hpp -->
<g id="node38" class="node">
<title>uicontext.hpp</title>
<ellipse fill="none" stroke="black" cx="3450.99" cy="-762" rx="74.99" ry="18"/>
<text text-anchor="middle" x="3450.99" y="-758.3" font-family="Times,serif" font-size="14.00">uicontext.hpp</text>
</g>
<!-- uicontext.cpp&#45;&gt;uicontext.hpp -->
<g id="edge54" class="edge">
<title>uicontext.cpp&#45;&gt;uicontext.hpp</title>
<path fill="none" stroke="black" d="M3450.99,-3791.87C3450.99,-3561.48 3450.99,-1079.94 3450.99,-790.5"/>
<polygon fill="black" stroke="black" points="3454.49,-790.08 3450.99,-780.08 3447.49,-790.08 3454.49,-790.08"/>
</g>
<!-- event.cpp -->
<g id="node40" class="node">
<title>event.cpp</title>
<ellipse fill="none" stroke="black" cx="3600.99" cy="-3810" rx="55.79" ry="18"/>
<text text-anchor="middle" x="3600.99" y="-3806.3" font-family="Times,serif" font-size="14.00">event.cpp</text>
</g>
<!-- event.hpp -->
<g id="node41" class="node">
<title>event.hpp</title>
<ellipse fill="none" stroke="black" cx="3600.99" cy="-762" rx="57.39" ry="18"/>
<text text-anchor="middle" x="3600.99" y="-758.3" font-family="Times,serif" font-size="14.00">event.hpp</text>
</g>
<!-- event.cpp&#45;&gt;event.hpp -->
<g id="edge56" class="edge">
<title>event.cpp&#45;&gt;event.hpp</title>
<path fill="none" stroke="black" d="M3600.99,-3791.87C3600.99,-3561.48 3600.99,-1079.94 3600.99,-790.5"/>
<polygon fill="black" stroke="black" points="3604.49,-790.08 3600.99,-780.08 3597.49,-790.08 3604.49,-790.08"/>
</g>
</g>
</svg>
